<svg width="24" height="28" viewBox="0 0 24 28" fill="none" xmlns="http://www.w3.org/2000/svg">
<path d="M19.75 0C21.8211 0 23.5 1.67893 23.5 3.75V23.75C23.5 25.8211 21.8211 27.5 19.75 27.5H3.75C1.67893 27.5 0 25.8211 0 23.75V3.75C2.57706e-07 1.67893 1.67893 0 3.75 0H19.75ZM3.75 1.5C2.50736 1.5 1.5 2.50736 1.5 3.75V23.75C1.5 24.9926 2.50736 26 3.75 26H19.75C20.9926 26 22 24.9926 22 23.75V3.75C22 2.50736 20.9926 1.5 19.75 1.5H3.75ZM18.75 20C19.1642 20 19.5 20.3358 19.5 20.75C19.5 21.1642 19.1642 21.5 18.75 21.5H4.75C4.33579 21.5 4 21.1642 4 20.75C4 20.3358 4.33579 20 4.75 20H18.75ZM18.75 13C19.1642 13 19.5 13.3358 19.5 13.75C19.5 14.1642 19.1642 14.5 18.75 14.5H4.75C4.33579 14.5 4 14.1642 4 13.75C4 13.3358 4.33579 13 4.75 13H18.75ZM18.75 6C19.1642 6 19.5 6.33579 19.5 6.75C19.5 7.16421 19.1642 7.5 18.75 7.5H4.75C4.33579 7.5 4 7.16421 4 6.75C4 6.33579 4.33579 6 4.75 6H18.75Z" fill="black"/>
</svg>
